<svg height="185pt" viewBox="0.00 0.00 561.45 185.00" width="561pt" xmlns="http://www.w3.org/2000/svg" xmlns:xlink="http://www.w3.org/1999/xlink">
<g class="graph" id="graph0" transform="scale(1 1) rotate(0) translate(4 181)">
<polygon fill="#ffffff" points="-4,4 -4,-181 557.4487,-181 557.4487,4 -4,4" stroke="transparent"/>
<!-- virus.ConstructGene -->
<g class="node" id="node1">
<title>virus.ConstructGene</title>
<g id="a_node1"><a xlink:title="→ Construct→ GeneElement">
<polygon fill="#00ff00" fill-opacity="0.188235" points="223.2369,-35 97.4819,-35 97.4819,0 223.2369,0 223.2369,-35" stroke="#00ff00" stroke-opacity="0.188235"/>
<text fill="#006400" font-family="arial" font-size="12.00" text-anchor="middle" x="160.3594" y="-14.7994">virus.ConstructGene</text>
</a>
</g>
</g>
<!-- virus.VirusType -->
<g class="node" id="node2">
<title>virus.VirusType</title>
<g id="a_node2"><a xlink:title="virus_type           ------------------------------virus_type_description=null ">
<polygon fill="#000000" fill-opacity="0.125490" points="343.5334,-106 259.1854,-106 259.1854,-71 343.5334,-71 343.5334,-106" stroke="transparent"/>
<text fill="#000000" font-family="arial" font-size="10.00" text-anchor="middle" x="301.3594" y="-86.2495">virus.VirusType</text>
</a>
</g>
</g>
<!-- virus.Virus -->
<g class="node" id="node6">
<title>virus.Virus</title>
<g id="a_node6"><a xlink:title="virus_name           ------------------------------→ Construct→ VirusType→ Serotype→ VirusSourcevirus_catlog=null    virus_lot=null       virus_titer=null     virus_date=null      virus_notes=null     ">
<polygon fill="#00ff00" fill-opacity="0.188235" points="369.1526,-35 297.5661,-35 297.5661,0 369.1526,0 369.1526,-35" stroke="#00ff00" stroke-opacity="0.188235"/>
<text fill="#006400" font-family="arial" font-size="12.00" text-anchor="middle" x="333.3594" y="-14.7994">virus.Virus</text>
</a>
</g>
</g>
<!-- virus.VirusType&#45;&gt;virus.Virus -->
<g class="edge" id="edge1">
<title>virus.VirusType-&gt;virus.Virus</title>
<path d="M309.2695,-70.9494C314.1556,-60.1083 320.4077,-46.2366 325.318,-35.3418" fill="none" stroke="#000000" stroke-dasharray="5,2" stroke-opacity="0.250980" stroke-width=".75"/>
</g>
<!-- virus.ConstructSource -->
<g class="node" id="node3">
<title>virus.ConstructSource</title>
<g id="a_node3"><a xlink:title="construct_source     ">
<polygon fill="#000000" fill-opacity="0.125490" points="255.7291,-177 140.9896,-177 140.9896,-142 255.7291,-142 255.7291,-177" stroke="transparent"/>
<text fill="#000000" font-family="arial" font-size="10.00" text-anchor="middle" x="198.3594" y="-157.2495">virus.ConstructSource</text>
</a>
</g>
</g>
<!-- virus.Construct -->
<g class="node" id="node7">
<title>virus.Construct</title>
<g id="a_node7"><a xlink:title="construct_name       ------------------------------→ ConstructSourceconstruct_notes=null ">
<polygon fill="#00ff00" fill-opacity="0.188235" points="241.3809,-106 145.3379,-106 145.3379,-71 241.3809,-71 241.3809,-106" stroke="#00ff00" stroke-opacity="0.188235"/>
<text fill="#006400" font-family="arial" font-size="12.00" text-anchor="middle" x="193.3594" y="-85.7994">virus.Construct</text>
</a>
</g>
</g>
<!-- virus.ConstructSource&#45;&gt;virus.Construct -->
<g class="edge" id="edge2">
<title>virus.ConstructSource-&gt;virus.Construct</title>
<path d="M197.1234,-141.9494C196.36,-131.1083 195.3831,-117.2366 194.6158,-106.3418" fill="none" stroke="#000000" stroke-dasharray="5,2" stroke-opacity="0.250980" stroke-width=".75"/>
</g>
<!-- virus.GeneElementType -->
<g class="node" id="node4">
<title>virus.GeneElementType</title>
<g id="a_node4"><a xlink:title="type                 ">
<polygon fill="#000000" fill-opacity="0.125490" points="122.5784,-177 .1403,-177 .1403,-142 122.5784,-142 122.5784,-177" stroke="transparent"/>
<text fill="#000000" font-family="arial" font-size="10.00" text-anchor="middle" x="61.3594" y="-157.2495">virus.GeneElementType</text>
</a>
</g>
</g>
<!-- virus.GeneElement -->
<g class="node" id="node5">
<title>virus.GeneElement</title>
<g id="a_node5"><a xlink:title="gene_name            ------------------------------→ GeneElementTypefunction_description=null dna_source=null      risk=&quot;no known risk&quot; ">
<polygon fill="#000000" fill-opacity="0.125490" points="121.8984,-106 20.8203,-106 20.8203,-71 121.8984,-71 121.8984,-106" stroke="transparent"/>
<text fill="#000000" font-family="arial" font-size="10.00" text-anchor="middle" x="71.3594" y="-86.2495">virus.GeneElement</text>
</a>
</g>
</g>
<!-- virus.GeneElementType&#45;&gt;virus.GeneElement -->
<g class="edge" id="edge3">
<title>virus.GeneElementType-&gt;virus.GeneElement</title>
<path d="M63.8313,-141.9494C65.3582,-131.1083 67.312,-117.2366 68.8464,-106.3418" fill="none" stroke="#000000" stroke-dasharray="5,2" stroke-opacity="0.250980" stroke-width=".75"/>
</g>
<!-- virus.GeneElement&#45;&gt;virus.ConstructGene -->
<g class="edge" id="edge4">
<title>virus.GeneElement-&gt;virus.ConstructGene</title>
<path d="M93.3594,-70.9494C107.0519,-60.0262 124.6011,-46.0262 138.304,-35.0947" fill="none" stroke="#000000" stroke-opacity="0.250980" stroke-width=".75"/>
</g>
<!-- virus.Construct&#45;&gt;virus.ConstructGene -->
<g class="edge" id="edge5">
<title>virus.Construct-&gt;virus.ConstructGene</title>
<path d="M185.2021,-70.9494C180.1633,-60.1083 173.7158,-46.2366 168.6521,-35.3418" fill="none" stroke="#000000" stroke-opacity="0.250980" stroke-width=".75"/>
</g>
<!-- virus.Construct&#45;&gt;virus.Virus -->
<g class="edge" id="edge6">
<title>virus.Construct-&gt;virus.Virus</title>
<path d="M227.9661,-70.9494C249.5049,-60.0262 277.1105,-46.0262 298.6655,-35.0947" fill="none" stroke="#000000" stroke-dasharray="5,2" stroke-opacity="0.250980" stroke-width=".75"/>
</g>
<!-- virus.Serotype -->
<g class="node" id="node8">
<title>virus.Serotype</title>
<g id="a_node8"><a xlink:title="serotype             ------------------------------description=null     ">
<polygon fill="#000000" fill-opacity="0.125490" points="441.2754,-106 361.4433,-106 361.4433,-71 441.2754,-71 441.2754,-106" stroke="transparent"/>
<text fill="#000000" font-family="arial" font-size="10.00" text-anchor="middle" x="401.3594" y="-86.2495">virus.Serotype</text>
</a>
</g>
</g>
<!-- virus.Serotype&#45;&gt;virus.Virus -->
<g class="edge" id="edge7">
<title>virus.Serotype-&gt;virus.Virus</title>
<path d="M384.5504,-70.9494C374.1674,-60.1083 360.8817,-46.2366 350.4473,-35.3418" fill="none" stroke="#000000" stroke-dasharray="5,2" stroke-opacity="0.250980" stroke-width=".75"/>
</g>
<!-- virus.VirusSource -->
<g class="node" id="node9">
<title>virus.VirusSource</title>
<g id="a_node9"><a xlink:title="virus_source         ">
<polygon fill="#000000" fill-opacity="0.125490" points="553.5383,-106 459.1805,-106 459.1805,-71 553.5383,-71 553.5383,-106" stroke="transparent"/>
<text fill="#000000" font-family="arial" font-size="10.00" text-anchor="middle" x="506.3594" y="-86.2495">virus.VirusSource</text>
</a>
</g>
</g>
<!-- virus.VirusSource&#45;&gt;virus.Virus -->
<g class="edge" id="edge8">
<title>virus.VirusSource-&gt;virus.Virus</title>
<path d="M463.5953,-70.9494C434.5782,-59.0407 396.6502,-43.4749 369.2149,-32.2153" fill="none" stroke="#000000" stroke-dasharray="5,2" stroke-opacity="0.250980" stroke-width=".75"/>
</g>
</g>
</svg>